<?xml version="1.0" encoding="UTF-8" standalone="no"?>
<!DOCTYPE svg PUBLIC "-//W3C//DTD SVG 1.1//EN"
 "http://www.w3.org/Graphics/SVG/1.1/DTD/svg11.dtd">
<!-- Generated by graphviz version 2.43.0 (0)
 -->
<!-- Title: G Pages: 1 -->
<svg width="742pt" height="340pt"
 viewBox="0.00 0.00 741.91 340.28" xmlns="http://www.w3.org/2000/svg" xmlns:xlink="http://www.w3.org/1999/xlink">
<g id="graph0" class="graph" transform="scale(1 1) rotate(0) translate(4 336.28)">
<title>G</title><style>.edge>path:hover{stroke-width:8}</style>
<polygon fill="white" stroke="transparent" points="-4,4 -4,-336.28 737.91,-336.28 737.91,4 -4,4"/>
<!-- kolombos_byteio_formatter_binary -->
<g id="node1" class="node">
<title>kolombos_byteio_formatter_binary</title><style>.edge>path:hover{stroke-width:8}</style>
<polygon fill="#913030" stroke="black" points="94.86,-276.08 94.86,-308.88 67.09,-332.08 27.82,-332.08 0.05,-308.88 0.05,-276.08 27.82,-252.88 67.09,-252.88 94.86,-276.08"/>
<text text-anchor="middle" x="47.45" y="-306.48" font-family="Helvetica,sans-Serif" font-size="10.00" fill="#ffffff">kolombos.</text>
<text text-anchor="middle" x="47.45" y="-295.48" font-family="Helvetica,sans-Serif" font-size="10.00" fill="#ffffff">byteio.</text>
<text text-anchor="middle" x="47.45" y="-284.48" font-family="Helvetica,sans-Serif" font-size="10.00" fill="#ffffff">formatter.</text>
<text text-anchor="middle" x="47.45" y="-273.48" font-family="Helvetica,sans-Serif" font-size="10.00" fill="#ffffff">binary</text>
</g>
<!-- kolombos_byteio_formatter -->
<g id="node13" class="node">
<title>kolombos_byteio_formatter</title><style>.edge>path:hover{stroke-width:8}</style>
<polygon fill="#ca1616" stroke="black" points="94.86,-172.35 94.86,-198.25 67.09,-216.56 27.82,-216.56 0.05,-198.25 0.05,-172.35 27.82,-154.04 67.09,-154.04 94.86,-172.35"/>
<text text-anchor="middle" x="47.45" y="-193.8" font-family="Helvetica,sans-Serif" font-size="10.00" fill="#ffffff">kolombos.</text>
<text text-anchor="middle" x="47.45" y="-182.8" font-family="Helvetica,sans-Serif" font-size="10.00" fill="#ffffff">byteio.</text>
<text text-anchor="middle" x="47.45" y="-171.8" font-family="Helvetica,sans-Serif" font-size="10.00" fill="#ffffff">formatter</text>
</g>
<!-- kolombos_byteio_formatter_binary&#45;&gt;kolombos_byteio_formatter -->
<g id="edge5" class="edge">
<title>kolombos_byteio_formatter_binary&#45;&gt;kolombos_byteio_formatter</title><style>.edge>path:hover{stroke-width:8}</style>
<path fill="none" stroke="black" d="M40.91,-252.62C40.65,-244.21 40.63,-235.3 40.86,-226.84"/>
<polygon fill="#913030" stroke="black" points="44.36,-226.93 41.26,-216.79 37.37,-226.65 44.36,-226.93"/>
</g>
<!-- kolombos_byteio_partial_override -->
<g id="node2" class="node">
<title>kolombos_byteio_partial_override</title><style>.edge>path:hover{stroke-width:8}</style>
<polygon fill="#b03a3a" stroke="black" points="240,-279.53 240,-305.43 202.78,-323.74 150.13,-323.74 112.9,-305.43 112.9,-279.53 150.13,-261.22 202.78,-261.22 240,-279.53"/>
<text text-anchor="middle" x="176.45" y="-300.98" font-family="Helvetica,sans-Serif" font-size="10.00" fill="#ffffff">kolombos.</text>
<text text-anchor="middle" x="176.45" y="-289.98" font-family="Helvetica,sans-Serif" font-size="10.00" fill="#ffffff">byteio.</text>
<text text-anchor="middle" x="176.45" y="-278.98" font-family="Helvetica,sans-Serif" font-size="10.00" fill="#ffffff">partial_override</text>
</g>
<!-- kolombos_byteio -->
<g id="node5" class="node">
<title>kolombos_byteio</title><style>.edge>path:hover{stroke-width:8}</style>
<polygon fill="#d10505" stroke="black" points="223.86,-175.81 223.86,-194.8 196.09,-208.22 156.82,-208.22 129.05,-194.8 129.05,-175.81 156.82,-162.38 196.09,-162.38 223.86,-175.81"/>
<text text-anchor="middle" x="176.45" y="-188.3" font-family="Helvetica,sans-Serif" font-size="10.00" fill="#ffffff">kolombos.</text>
<text text-anchor="middle" x="176.45" y="-177.3" font-family="Helvetica,sans-Serif" font-size="10.00" fill="#ffffff">byteio</text>
</g>
<!-- kolombos_byteio_partial_override&#45;&gt;kolombos_byteio -->
<g id="edge8" class="edge">
<title>kolombos_byteio_partial_override&#45;&gt;kolombos_byteio</title><style>.edge>path:hover{stroke-width:8}</style>
<path fill="none" stroke="black" d="M176.45,-261.06C176.45,-247.75 176.45,-232.12 176.45,-218.61"/>
<polygon fill="#b03a3a" stroke="black" points="179.95,-218.3 176.45,-208.31 172.95,-218.31 179.95,-218.3"/>
</g>
<!-- kolombos_byteio_template_template_control -->
<g id="node3" class="node">
<title>kolombos_byteio_template_template_control</title><style>.edge>path:hover{stroke-width:8}</style>
<polygon fill="#a13535" stroke="black" points="394.69,-276.08 394.69,-308.88 354.72,-332.08 298.19,-332.08 258.22,-308.88 258.22,-276.08 298.19,-252.88 354.72,-252.88 394.69,-276.08"/>
<text text-anchor="middle" x="326.45" y="-306.48" font-family="Helvetica,sans-Serif" font-size="10.00" fill="#ffffff">kolombos.</text>
<text text-anchor="middle" x="326.45" y="-295.48" font-family="Helvetica,sans-Serif" font-size="10.00" fill="#ffffff">byteio.</text>
<text text-anchor="middle" x="326.45" y="-284.48" font-family="Helvetica,sans-Serif" font-size="10.00" fill="#ffffff">template.</text>
<text text-anchor="middle" x="326.45" y="-273.48" font-family="Helvetica,sans-Serif" font-size="10.00" fill="#ffffff">template_control</text>
</g>
<!-- kolombos_byteio_template -->
<g id="node10" class="node">
<title>kolombos_byteio_template</title><style>.edge>path:hover{stroke-width:8}</style>
<polygon fill="#b30404" stroke="black" points="373.86,-172.35 373.86,-198.25 346.09,-216.56 306.82,-216.56 279.05,-198.25 279.05,-172.35 306.82,-154.04 346.09,-154.04 373.86,-172.35"/>
<text text-anchor="middle" x="326.45" y="-193.8" font-family="Helvetica,sans-Serif" font-size="10.00" fill="#ffffff">kolombos.</text>
<text text-anchor="middle" x="326.45" y="-182.8" font-family="Helvetica,sans-Serif" font-size="10.00" fill="#ffffff">byteio.</text>
<text text-anchor="middle" x="326.45" y="-171.8" font-family="Helvetica,sans-Serif" font-size="10.00" fill="#ffffff">template</text>
</g>
<!-- kolombos_byteio_template_template_control&#45;&gt;kolombos_byteio_template -->
<g id="edge12" class="edge">
<title>kolombos_byteio_template_template_control&#45;&gt;kolombos_byteio_template</title><style>.edge>path:hover{stroke-width:8}</style>
<path fill="none" stroke="black" d="M319.91,-252.62C319.65,-244.21 319.63,-235.3 319.86,-226.84"/>
<polygon fill="#a13535" stroke="black" points="323.36,-226.93 320.26,-216.79 316.37,-226.65 323.36,-226.93"/>
</g>
<!-- kolombos_byteio_parser_parser -->
<g id="node4" class="node">
<title>kolombos_byteio_parser_parser</title><style>.edge>path:hover{stroke-width:8}</style>
<polygon fill="#8a2e2e" stroke="black" points="507.86,-276.08 507.86,-308.88 480.09,-332.08 440.82,-332.08 413.05,-308.88 413.05,-276.08 440.82,-252.88 480.09,-252.88 507.86,-276.08"/>
<text text-anchor="middle" x="460.45" y="-306.48" font-family="Helvetica,sans-Serif" font-size="10.00" fill="#ffffff">kolombos.</text>
<text text-anchor="middle" x="460.45" y="-295.48" font-family="Helvetica,sans-Serif" font-size="10.00" fill="#ffffff">byteio.</text>
<text text-anchor="middle" x="460.45" y="-284.48" font-family="Helvetica,sans-Serif" font-size="10.00" fill="#ffffff">parser.</text>
<text text-anchor="middle" x="460.45" y="-273.48" font-family="Helvetica,sans-Serif" font-size="10.00" fill="#ffffff">parser</text>
</g>
<!-- kolombos_byteio_parser -->
<g id="node14" class="node">
<title>kolombos_byteio_parser</title><style>.edge>path:hover{stroke-width:8}</style>
<polygon fill="#c43131" stroke="black" points="507.86,-172.35 507.86,-198.25 480.09,-216.56 440.82,-216.56 413.05,-198.25 413.05,-172.35 440.82,-154.04 480.09,-154.04 507.86,-172.35"/>
<text text-anchor="middle" x="460.45" y="-193.8" font-family="Helvetica,sans-Serif" font-size="10.00" fill="#ffffff">kolombos.</text>
<text text-anchor="middle" x="460.45" y="-182.8" font-family="Helvetica,sans-Serif" font-size="10.00" fill="#ffffff">byteio.</text>
<text text-anchor="middle" x="460.45" y="-171.8" font-family="Helvetica,sans-Serif" font-size="10.00" fill="#ffffff">parser</text>
</g>
<!-- kolombos_byteio_parser_parser&#45;&gt;kolombos_byteio_parser -->
<g id="edge7" class="edge">
<title>kolombos_byteio_parser_parser&#45;&gt;kolombos_byteio_parser</title><style>.edge>path:hover{stroke-width:8}</style>
<path fill="none" stroke="black" d="M453.91,-252.62C453.65,-244.21 453.63,-235.3 453.86,-226.84"/>
<polygon fill="#8a2e2e" stroke="black" points="457.36,-226.93 454.26,-216.79 450.37,-226.65 457.36,-226.93"/>
</g>
<!-- kolombos_arghelp -->
<g id="node6" class="node">
<title>kolombos_arghelp</title><style>.edge>path:hover{stroke-width:8}</style>
<polygon fill="#b03a3a" stroke="black" points="223.86,-85.47 223.86,-104.46 196.09,-117.88 156.82,-117.88 129.05,-104.46 129.05,-85.47 156.82,-72.04 196.09,-72.04 223.86,-85.47"/>
<text text-anchor="middle" x="176.45" y="-97.96" font-family="Helvetica,sans-Serif" font-size="10.00" fill="#ffffff">kolombos.</text>
<text text-anchor="middle" x="176.45" y="-86.96" font-family="Helvetica,sans-Serif" font-size="10.00" fill="#ffffff">arghelp</text>
</g>
<!-- kolombos_byteio&#45;&gt;kolombos_arghelp -->
<g id="edge3" class="edge">
<title>kolombos_byteio&#45;&gt;kolombos_arghelp</title><style>.edge>path:hover{stroke-width:8}</style>
<path fill="none" stroke="black" d="M176.45,-162.01C176.45,-151.78 176.45,-139.46 176.45,-128.25"/>
<polygon fill="#d10505" stroke="black" points="179.95,-127.94 176.45,-117.94 172.95,-127.94 179.95,-127.94"/>
</g>
<!-- kolombos -->
<g id="node7" class="node">
<title>kolombos</title><style>.edge>path:hover{stroke-width:8}</style>
<polygon fill="#e50505" stroke="black" points="251.14,-10.54 251.14,-25.46 229.06,-36 197.84,-36 175.77,-25.46 175.77,-10.54 197.84,0 229.06,0 251.14,-10.54"/>
<text text-anchor="middle" x="213.45" y="-15.5" font-family="Helvetica,sans-Serif" font-size="10.00" fill="#ffffff">kolombos</text>
</g>
<!-- kolombos_arghelp&#45;&gt;kolombos -->
<g id="edge2" class="edge">
<title>kolombos_arghelp&#45;&gt;kolombos</title><style>.edge>path:hover{stroke-width:8}</style>
<path fill="none" stroke="black" d="M187.35,-71.88C191.49,-63.5 196.23,-53.89 200.53,-45.18"/>
<polygon fill="#b03a3a" stroke="black" points="203.69,-46.69 204.98,-36.17 197.41,-43.59 203.69,-46.69"/>
</g>
<!-- kolombos&#45;&gt;kolombos_byteio_partial_override -->
<g id="edge1" class="edge">
<title>kolombos&#45;&gt;kolombos_byteio_partial_override</title><style>.edge>path:hover{stroke-width:8}</style>
<path fill="none" stroke="black" d="M221.35,-36.25C225.56,-46.42 230.31,-59.67 232.45,-72 243.47,-135.35 252.76,-155.67 232.45,-216.68 228,-230.06 220.12,-242.97 211.65,-254.2"/>
<polygon fill="#e50505" stroke="black" points="208.89,-252.05 205.41,-262.06 214.37,-256.4 208.89,-252.05"/>
</g>
<!-- kolombos_byteio_segment_buffer -->
<g id="node8" class="node">
<title>kolombos_byteio_segment_buffer</title><style>.edge>path:hover{stroke-width:8}</style>
<polygon fill="#913030" stroke="black" points="620.86,-276.08 620.86,-308.88 593.09,-332.08 553.82,-332.08 526.05,-308.88 526.05,-276.08 553.82,-252.88 593.09,-252.88 620.86,-276.08"/>
<text text-anchor="middle" x="573.45" y="-306.48" font-family="Helvetica,sans-Serif" font-size="10.00" fill="#ffffff">kolombos.</text>
<text text-anchor="middle" x="573.45" y="-295.48" font-family="Helvetica,sans-Serif" font-size="10.00" fill="#ffffff">byteio.</text>
<text text-anchor="middle" x="573.45" y="-284.48" font-family="Helvetica,sans-Serif" font-size="10.00" fill="#ffffff">segment.</text>
<text text-anchor="middle" x="573.45" y="-273.48" font-family="Helvetica,sans-Serif" font-size="10.00" fill="#ffffff">buffer</text>
</g>
<!-- kolombos_byteio_segment -->
<g id="node12" class="node">
<title>kolombos_byteio_segment</title><style>.edge>path:hover{stroke-width:8}</style>
<polygon fill="#d10505" stroke="black" points="620.86,-172.35 620.86,-198.25 593.09,-216.56 553.82,-216.56 526.05,-198.25 526.05,-172.35 553.82,-154.04 593.09,-154.04 620.86,-172.35"/>
<text text-anchor="middle" x="573.45" y="-193.8" font-family="Helvetica,sans-Serif" font-size="10.00" fill="#ffffff">kolombos.</text>
<text text-anchor="middle" x="573.45" y="-182.8" font-family="Helvetica,sans-Serif" font-size="10.00" fill="#ffffff">byteio.</text>
<text text-anchor="middle" x="573.45" y="-171.8" font-family="Helvetica,sans-Serif" font-size="10.00" fill="#ffffff">segment</text>
</g>
<!-- kolombos_byteio_segment_buffer&#45;&gt;kolombos_byteio_segment -->
<g id="edge10" class="edge">
<title>kolombos_byteio_segment_buffer&#45;&gt;kolombos_byteio_segment</title><style>.edge>path:hover{stroke-width:8}</style>
<path fill="none" stroke="black" d="M566.91,-252.62C566.65,-244.21 566.63,-235.3 566.86,-226.84"/>
<polygon fill="#913030" stroke="black" points="570.36,-226.93 567.26,-216.79 563.37,-226.65 570.36,-226.93"/>
</g>
<!-- kolombos_runner_byteio -->
<g id="node9" class="node">
<title>kolombos_runner_byteio</title><style>.edge>path:hover{stroke-width:8}</style>
<polygon fill="#8a2e2e" stroke="black" points="733.86,-279.53 733.86,-305.43 706.09,-323.74 666.82,-323.74 639.05,-305.43 639.05,-279.53 666.82,-261.22 706.09,-261.22 733.86,-279.53"/>
<text text-anchor="middle" x="686.45" y="-300.98" font-family="Helvetica,sans-Serif" font-size="10.00" fill="#ffffff">kolombos.</text>
<text text-anchor="middle" x="686.45" y="-289.98" font-family="Helvetica,sans-Serif" font-size="10.00" fill="#ffffff">runner.</text>
<text text-anchor="middle" x="686.45" y="-278.98" font-family="Helvetica,sans-Serif" font-size="10.00" fill="#ffffff">byteio</text>
</g>
<!-- kolombos_runner -->
<g id="node11" class="node">
<title>kolombos_runner</title><style>.edge>path:hover{stroke-width:8}</style>
<polygon fill="#cc0a0a" stroke="black" points="733.86,-175.81 733.86,-194.8 706.09,-208.22 666.82,-208.22 639.05,-194.8 639.05,-175.81 666.82,-162.38 706.09,-162.38 733.86,-175.81"/>
<text text-anchor="middle" x="686.45" y="-188.3" font-family="Helvetica,sans-Serif" font-size="10.00" fill="#ffffff">kolombos.</text>
<text text-anchor="middle" x="686.45" y="-177.3" font-family="Helvetica,sans-Serif" font-size="10.00" fill="#ffffff">runner</text>
</g>
<!-- kolombos_runner_byteio&#45;&gt;kolombos_runner -->
<g id="edge14" class="edge">
<title>kolombos_runner_byteio&#45;&gt;kolombos_runner</title><style>.edge>path:hover{stroke-width:8}</style>
<path fill="none" stroke="black" d="M680.27,-261.06C679.55,-247.75 679.52,-232.12 680.17,-218.61"/>
<polygon fill="#8a2e2e" stroke="black" points="683.68,-218.51 680.84,-208.31 676.7,-218.06 683.68,-218.51"/>
</g>
<!-- kolombos_byteio_template&#45;&gt;kolombos_byteio_template_template_control -->
<g id="edge11" class="edge">
<title>kolombos_byteio_template&#45;&gt;kolombos_byteio_template_template_control</title><style>.edge>path:hover{stroke-width:8}</style>
<path fill="none" stroke="black" d="M332.64,-216.79C333.07,-224.83 333.26,-233.71 333.19,-242.46"/>
<polygon fill="#b30404" stroke="black" points="329.69,-242.55 332.99,-252.62 336.69,-242.68 329.69,-242.55"/>
</g>
<!-- kolombos_runner&#45;&gt;kolombos_runner_byteio -->
<g id="edge13" class="edge">
<title>kolombos_runner&#45;&gt;kolombos_runner_byteio</title><style>.edge>path:hover{stroke-width:8}</style>
<path fill="none" stroke="black" d="M692.06,-208.31C693.1,-220.61 693.43,-236.35 693.05,-250.82"/>
<polygon fill="#cc0a0a" stroke="black" points="689.54,-250.93 692.64,-261.06 696.53,-251.21 689.54,-250.93"/>
</g>
<!-- kolombos_byteio_segment&#45;&gt;kolombos_byteio_segment_buffer -->
<g id="edge9" class="edge">
<title>kolombos_byteio_segment&#45;&gt;kolombos_byteio_segment_buffer</title><style>.edge>path:hover{stroke-width:8}</style>
<path fill="none" stroke="black" d="M579.64,-216.79C580.07,-224.83 580.26,-233.71 580.19,-242.46"/>
<polygon fill="#d10505" stroke="black" points="576.69,-242.55 579.99,-252.62 583.69,-242.68 576.69,-242.55"/>
</g>
<!-- kolombos_byteio_formatter&#45;&gt;kolombos_byteio_formatter_binary -->
<g id="edge4" class="edge">
<title>kolombos_byteio_formatter&#45;&gt;kolombos_byteio_formatter_binary</title><style>.edge>path:hover{stroke-width:8}</style>
<path fill="none" stroke="black" d="M53.64,-216.79C54.07,-224.83 54.26,-233.71 54.19,-242.46"/>
<polygon fill="#ca1616" stroke="black" points="50.69,-242.55 53.99,-252.62 57.69,-242.68 50.69,-242.55"/>
</g>
<!-- kolombos_byteio_parser&#45;&gt;kolombos_byteio_parser_parser -->
<g id="edge6" class="edge">
<title>kolombos_byteio_parser&#45;&gt;kolombos_byteio_parser_parser</title><style>.edge>path:hover{stroke-width:8}</style>
<path fill="none" stroke="black" d="M466.64,-216.79C467.07,-224.83 467.26,-233.71 467.19,-242.46"/>
<polygon fill="#c43131" stroke="black" points="463.69,-242.55 466.99,-252.62 470.69,-242.68 463.69,-242.55"/>
</g>
</g>
</svg>
