<?xml version="1.0" encoding="UTF-8" standalone="no"?>
<svg
   width="7.11111in"
   height="7.11111in"
   viewBox="0 0 512 512"
   version="1.1"
   id="svg5"
   sodipodi:docname="kolombos-v2.svg"
   inkscape:version="1.2.2 (1:1.2.2+202212051550+b0a8486541)"
   xmlns:inkscape="http://www.inkscape.org/namespaces/inkscape"
   xmlns:sodipodi="http://sodipodi.sourceforge.net/DTD/sodipodi-0.dtd"
   xmlns="http://www.w3.org/2000/svg"
   xmlns:svg="http://www.w3.org/2000/svg">
  <defs
     id="defs9" />
  <sodipodi:namedview
     id="namedview7"
     pagecolor="#ffffff"
     bordercolor="#000000"
     borderopacity="0.25"
     inkscape:showpageshadow="2"
     inkscape:pageopacity="0.0"
     inkscape:pagecheckerboard="0"
     inkscape:deskcolor="#d1d1d1"
     inkscape:document-units="in"
     showgrid="false"
     inkscape:zoom="0.73524023"
     inkscape:cx="410.07005"
     inkscape:cy="295.82168"
     inkscape:window-width="1920"
     inkscape:window-height="1052"
     inkscape:window-x="0"
     inkscape:window-y="28"
     inkscape:window-maximized="1"
     inkscape:current-layer="svg5" />
  <path
     id="Selection #1"
     fill="none"
     stroke="black"
     stroke-width="1"
     d="m 382.11023,380.57777 c 9.5051,-0.21851 20.96464,-3.69036 21.85081,-14.56721 5.15922,1.29891 19.42295,4.06668 24.27868,3.38688 4.27305,-0.60697 16.03607,-6.89515 20.63688,-9.1652 0,0 37.63196,-18.19688 37.63196,-18.19688 10.02709,-5.01354 24.97062,-11.82372 25.46834,-24.58216 0.59482,-15.04065 -10.367,-22.77341 -23.04047,-28.4182 -18.99807,-8.46112 -59.51919,-19.1923 -80.11965,-20.13917 7.17435,-3.31404 7.23504,-4.35802 7.2836,-12.13934 0.0971,-14.6886 -2.99842,-29.19511 -5.01355,-43.70163 0,0 -4.33374,-26.70655 -4.33374,-26.70655 -1.481,-10.28202 -1.59026,-17.56562 -4.91643,-27.92048 -6.48241,-20.23628 -23.27112,-39.47714 -44.00512,-45.59536 -8.69176,-2.56141 -16.52164,-3.05912 -25.49261,-2.962 0,0 -38.84589,5.45056 -38.84589,5.45056 -28.78238,1.83304 -48.46025,-16.254577 -74.04998,-16.37597 -32.20568,-0.145672 -61.82567,5.83902 -80.04682,35.20409 -6.10609,9.85714 -9.38371,20.64902 -13.02551,31.56229 0,0 -17.14075,65.55244 -17.14075,65.55244 0,0 -3.31404,16.99507 -3.31404,16.99507 0,0 -2.86488,9.71148 -2.86488,9.71148 -0.65553,3.10767 -1.34747,12.16362 -2.59782,14.06949 -2.185085,3.27762 -18.548917,8.91028 -23.040473,10.69476 0,0 -14.567209,4.9043 -14.567209,4.9043 -11.083219,4.03026 -36.333048,14.44581 -46.129496,20.02991 -9.7236122,5.54768 -13.1711851,11.14391 -14.8706928,21.92365 -0.5705491,3.65394 -1.21393413,6.08181 1.0197046,9.37157 13.1590452,19.43508 51.1916012,31.51373 73.3337592,37.20708 0,0 80.119647,18.41538 80.119647,18.41538 0,0 59.48277,7.84201 59.48277,7.84201 0,0 12.13935,0 12.13935,0 0,0 14.5672,1.52956 14.5672,1.52956 3.77534,0.61911 5.2442,1.83304 9.71148,2.02727 0,0 14.56721,-1.12896 14.56721,-1.12896 35.84747,-0.41273 50.90025,0.98329 87.40325,-6.9437 6.22748,-1.34747 23.44107,-3.94529 26.68227,-9.1652 1.39603,-2.25792 1.2018,-5.59624 1.23822,-8.16978 z"
     style="fill:#f5f5f5;fill-opacity:1;stroke:none" />
  <path
     id="Selection"
     fill="none"
     stroke="black"
     stroke-width="1"
     d="m 106.54719,271.3237 c 0,0 12.13934,-4.74648 12.13934,-4.74648 10.26988,-3.81175 20.72185,-7.21077 31.56228,-9.20162 0,0 9.71148,0 9.71148,0 48.29029,-6.64022 63.48875,-6.76161 111.68193,-6.68878 0,0 25.49262,1.21394 25.49262,1.21394 0,0 12.13934,1.10468 12.13934,1.10468 0,0 58.26884,5.15922 58.26884,5.15922 0,0 43.70162,4.6615 43.70162,4.6615 0,-17.68702 -3.22906,-34.74279 -5.7419,-52.19916 0,0 -3.60539,-21.85082 -3.60539,-21.85082 0,0 -2.37931,-18.20901 -2.37931,-18.20901 -5.08638,-23.45321 -19.11946,-44.87914 -42.90043,-52.50265 -5.25633,-1.68737 -13.89955,-3.19265 -19.42295,-3.32618 0,0 -43.70162,5.83903 -43.70162,5.83903 -4.05454,0.2792 -5.924,-0.41274 -9.71148,-0.78906 -10.2456,-1.03185 -18.03906,-2.17294 -27.92048,-5.49912 0,0 -21.85081,-8.18192 -21.85081,-8.18192 -23.79311,-6.05753 -58.40237,-0.085 -77.64323,15.51408 -11.90869,9.65077 -18.7917,27.49561 -23.5139,41.66222 -9.27446,27.81123 -15.9511,56.21729 -21.48664,84.97538 -1.61453,8.37615 -4.20021,9.45655 -4.81931,23.06475 z m 268.27943,114.10981 c -5.77832,-3.81176 -22.74912,-5.924 -30.34835,-7.53853 0,0 -64.33851,-12.9891 -64.33851,-12.9891 -7.64778,-0.43701 -13.42611,2.06369 -20.63688,3.4233 0,0 -29.13442,2.53712 -29.13442,2.53712 -36.73364,0.42487 -91.6156,-7.90271 -126.24914,-20.02991 -7.659927,-2.69494 -24.19371,-8.72819 -25.953914,-17.60205 -0.971147,-4.88001 3.034835,-8.38828 6.64022,-10.85257 6.021113,-4.1031 23.307534,-12.61278 30.239094,-13.69318 3.86031,-0.60696 22.68843,3.14409 27.92049,4.00599 0,0 64.33851,11.7873 64.33851,11.7873 0,0 50.98523,9.26231 50.98523,9.26231 0,0 94.68686,16.78871 94.68686,16.78871 0,0 43.70163,8.19406 43.70163,8.19406 0,0 25.49261,4.60081 25.49261,4.60081 6.56738,0.2792 14.61577,-5.11067 20.63688,-7.8663 0,0 46.1295,-22.80982 46.1295,-22.80982 5.64479,-4.03026 14.38512,-9.06809 15.4898,-16.41239 1.62667,-10.80401 -13.2683,-18.91309 -21.55947,-22.68842 -21.60803,-9.82073 -59.96835,-18.40325 -83.76146,-21.0739 0,0 -50.98523,-7.01654 -50.98523,-7.01654 0,0 -41.27376,-3.89673 -41.27376,-3.89673 0,0 -9.71147,0 -9.71147,0 0,0 -26.70655,-2.37931 -26.70655,-2.37931 -46.20233,-0.0728 -80.11965,-1.21393 -126.24915,8.01197 0,0 -18.20901,3.81175 -18.20901,3.81175 0,0 -33.990154,12.21218 -33.990154,12.21218 0,0 -65.552441,26.45162 -65.552441,26.45162 -7.672064,4.27305 -17.9055283,9.77217 -17.7719955,19.92066 0.1213934,9.69933 10.3305795,16.67945 17.7719955,21.12245 16.01179,9.54152 47.027807,18.98593 65.552441,23.6353 43.410284,10.90113 87.597484,20.05419 132.318814,23.1133 0,0 76.47785,1.32319 76.47785,1.32319 17.01936,-0.20637 59.45849,-5.924 74.04998,-13.35327 z M 147.82094,295.60238 c 11.49596,-9.1045 39.85346,-15.10134 54.62704,-17.15289 11.59307,-1.61453 23.50176,-3.45971 35.20409,-3.48399 32.72766,-0.0486 64.75124,1.74807 97.11473,6.77376 11.79944,1.83304 34.58498,6.2032 44.91556,11.18033 5.03782,2.41573 12.73417,7.04082 12.24859,13.55964 -0.44915,6.11823 -8.64321,10.17277 -13.46253,12.45497 -4.05454,1.91801 -18.41538,8.7646 -21.85081,9.14092 0,0 -20.63688,-2.63424 -20.63688,-2.63424 0,0 -133.53275,-21.66872 -133.53275,-21.66872 0,0 -54.62704,-8.16978 -54.62704,-8.16978 z m 38.8459,-3.6418 c 5.23205,2.23364 14.7493,3.10767 20.63688,3.96957 0,0 31.56228,4.85573 31.56228,4.85573 0,0 91.04506,14.23945 91.04506,14.23945 0,0 20.63688,2.65852 20.63688,2.65852 4.26091,-0.33991 19.39867,-7.75704 22.56703,-10.7069 1.56598,-1.46886 1.89374,-2.36718 2.92559,-4.09096 -16.67946,-9.89356 -36.94002,-12.06651 -55.84097,-14.72502 -39.44072,-5.53554 -95.41522,-8.58252 -133.53275,3.79961 z m -89.831128,43.70163 c 15.125618,9.845 31.198108,13.65676 48.557368,17.50493 30.34835,6.74947 56.19301,10.46411 87.40325,10.41555 7.98769,-0.0121 22.53062,-2.1608 30.34835,-4.05454 6.62808,-1.60239 6.61595,-3.02269 14.56721,-3.21692 9.66292,-0.23065 19.61718,2.69493 29.13442,4.60081 0,0 50.98523,10.43983 50.98523,10.43983 16.52165,3.31404 26.51232,8.9467 41.27376,-2.91344 0,0 -75.26391,-13.86313 -75.26391,-13.86313 0,0 -151.74176,-26.9372 -151.74176,-26.9372 0,0 -32.77622,-5.83902 -32.77622,-5.83902 -4.55226,-0.82547 -12.67348,-2.87702 -16.99508,-2.18508 -4.56439,0.72836 -10.6462,4.11524 -14.56721,6.54311 -5.35345,3.31404 -7.975548,3.70249 -10.925408,9.5051 z"
     style="fill:#000000;fill-opacity:1;stroke:none" />
</svg>
